<svg width="42" height="28" viewBox="0 0 42 28" fill="none" xmlns="http://www.w3.org/2000/svg">
<path d="M35.9335 11.4138V7.47382H31.9935V6.21382H35.9335V2.27382H37.1935V6.21382H41.1235V7.47382H37.1935V11.4138H35.9335Z" fill="white"/>
<path d="M25.4417 27.9561C21.7163 27.9561 18.6851 24.8892 18.6851 21.1199V14.2838C18.6851 10.5145 21.7163 7.44763 25.4417 7.44763C29.1672 7.44763 32.1984 10.5145 32.1984 14.2838V21.1199C32.1984 24.8892 29.1672 27.9561 25.4417 27.9561ZM25.4417 9.15667C22.647 9.15667 20.3742 11.4562 20.3742 14.2838V21.1199C20.3742 23.9476 22.647 26.2471 25.4417 26.2471C28.2365 26.2471 30.5092 23.9476 30.5092 21.1199V14.2838C30.5092 11.4562 28.2365 9.15667 25.4417 9.15667Z" fill="white"/>
<g clip-path="url(#clip0_100_6677)">
<path d="M17.1392 27.2356H6.02719C5.2707 27.2356 4.57677 26.8217 4.21786 26.1547C3.85567 25.4836 3.89189 24.6681 4.31088 24.0283C5.32503 22.4807 7.27595 21.5053 9.34046 20.4731C12.7031 18.7911 15.8797 17.2039 15.45 13.3156C15.1891 10.9493 13.0373 9.09581 10.5522 9.09581C7.82829 9.09581 5.61314 11.3145 5.61314 14.0428C5.61314 14.4979 5.24436 14.8673 4.78997 14.8673C4.33558 14.8673 3.9668 14.4979 3.9668 14.0428C3.96844 10.4068 6.92281 7.44763 10.5538 7.44763C13.9206 7.44763 16.7292 9.8931 17.0881 13.135C17.6438 18.1661 13.4481 20.2637 10.0772 21.9489C8.21601 22.879 6.45854 23.7579 5.68805 24.9336C5.56046 25.1274 5.63125 25.3046 5.66747 25.3714C5.7111 25.4514 5.81482 25.5858 6.02802 25.5858H17.14C17.5944 25.5858 17.9632 25.9552 17.9632 26.4103C17.9632 26.8654 17.5944 27.2348 17.14 27.2348L17.1392 27.2356Z" fill="white"/>
</g>
<defs>
<clipPath id="clip0_100_6677">
<rect width="20.2706" height="19.788" fill="white" transform="translate(0.588379 7.44763)"/>
</clipPath>
</defs>
</svg>
