<svg width="20" height="16" viewBox="0 0 20 16" fill="none" xmlns="http://www.w3.org/2000/svg">
<path d="M11.4313 15.8765C11.3909 15.8374 11.3588 15.791 11.337 15.7399C11.3151 15.6888 11.3038 15.634 11.3038 15.5786C11.3038 15.5233 11.3151 15.4685 11.337 15.4174C11.3588 15.3663 11.3909 15.3199 11.4313 15.2807L18.5149 8.42099L0.434776 8.42099C0.319465 8.42099 0.208879 8.37663 0.127342 8.29767C0.0458065 8.21871 -3.5457e-07 8.11162 -3.49689e-07 7.99995C-3.44808e-07 7.88829 0.0458065 7.78119 0.127342 7.70223C0.208879 7.62327 0.319465 7.57891 0.434776 7.57891L18.5149 7.57891L11.4313 0.719157C11.3909 0.680038 11.3589 0.633597 11.337 0.582486C11.3152 0.531375 11.3039 0.476594 11.3039 0.421272C11.3039 0.36595 11.3152 0.311169 11.337 0.260058C11.3589 0.208947 11.3909 0.162507 11.4313 0.123388C11.4717 0.0842691 11.5197 0.0532385 11.5725 0.0320676C11.6252 0.0108967 11.6818 3.37572e-07 11.7389 3.35253e-07C11.7961 3.32935e-07 11.8526 0.0108967 11.9054 0.0320675C11.9582 0.0532384 12.0061 0.0842691 12.0465 0.123388L19.8725 7.70207C19.9129 7.74117 19.945 7.78761 19.9669 7.83872C19.9887 7.88983 20 7.94462 20 7.99995C20 8.05528 19.9887 8.11007 19.9669 8.16119C19.945 8.2123 19.9129 8.25873 19.8725 8.29784L12.0465 15.8765C12.0062 15.9157 11.9582 15.9467 11.9054 15.9679C11.8526 15.9891 11.7961 16 11.7389 16C11.6818 16 11.6252 15.9891 11.5724 15.9679C11.5197 15.9467 11.4717 15.9157 11.4313 15.8765Z" fill="white"/>
</svg>
