<svg xmlns="http://www.w3.org/2000/svg" width="24" height="20" viewBox="0 0 24 20"
                                          fill="none">
                                          <path d="M13.5913 19.0445C13.5464 18.9996 13.5107 18.9463 13.4864 18.8876C13.462 18.8289 13.4495 18.766 13.4495 18.7025C13.4495 18.6389 13.462 18.576 13.4864 18.5173C13.5107 18.4586 13.5464 18.4053 13.5913 18.3604L21.4686 10.4831L1.36261 10.4831C1.23438 10.4831 1.1114 10.4322 1.02073 10.3415C0.930055 10.2508 0.879115 10.1278 0.879115 9.9996C0.879115 9.87137 0.930055 9.74839 1.02073 9.65772C1.1114 9.56705 1.23438 9.51611 1.36261 9.51611L21.4686 9.51611L13.5913 1.63882C13.5464 1.5939 13.5108 1.54057 13.4865 1.48188C13.4621 1.42318 13.4496 1.36028 13.4496 1.29675C13.4496 1.23322 13.4621 1.17031 13.4865 1.11162C13.5108 1.05293 13.5464 0.9996 13.5913 0.954679C13.6362 0.909757 13.6896 0.874124 13.7483 0.849813C13.807 0.825501 13.8699 0.812989 13.9334 0.812989C13.9969 0.812989 14.0598 0.825501 14.1185 0.849813C14.1772 0.874124 14.2305 0.909757 14.2755 0.954679L22.9783 9.65753C23.0233 9.70243 23.0589 9.75576 23.0833 9.81445C23.1076 9.87315 23.1201 9.93606 23.1201 9.9996C23.1201 10.0631 23.1076 10.1261 23.0833 10.1847C23.0589 10.2434 23.0233 10.2968 22.9783 10.3417L14.2755 19.0445C14.2306 19.0895 14.1772 19.1251 14.1185 19.1495C14.0598 19.1738 13.9969 19.1863 13.9334 19.1863C13.8699 19.1863 13.8069 19.1738 13.7482 19.1495C13.6895 19.1251 13.6362 19.0895 13.5913 19.0445Z"
                                                fill="#E30613" />
                                    </svg>