<svg width="32" height="32" viewBox="0 0 32 32" fill="none" xmlns="http://www.w3.org/2000/svg">
<g clip-path="url(#clip0_100_6692)">
<path d="M31.23 20.1371C31.23 20.486 30.9457 20.7692 30.5954 20.7692H29.1143C28.1599 20.7692 27.2131 21.0828 26.449 21.6542L18.7173 27.4296C17.9202 28.0466 16.962 28.3564 16.0013 28.3564C15.0405 28.3564 14.0747 28.0453 13.2726 27.422L5.5497 21.6542C4.78566 21.0828 3.83886 20.7692 2.88445 20.7692H1.4046C1.05431 20.7692 0.77002 20.486 0.77002 20.1371C0.77002 19.7881 1.05431 19.5049 1.4046 19.5049H2.88572C4.11427 19.5049 5.33013 19.9082 6.31119 20.6415L14.0429 26.4169C15.1979 27.3146 16.8008 27.3108 17.9482 26.4245L25.6888 20.6415C25.9617 20.438 26.2523 20.261 26.5569 20.1093L17.3187 13.2086L15.6548 14.7953C15.0659 15.382 14.2612 15.712 13.4223 15.712C12.3397 15.712 11.3866 15.1468 10.8345 14.3832C9.94228 13.1492 10.1301 11.3589 11.2749 10.2198L15.1192 6.61398L13.8678 5.47863C12.5149 4.25224 10.4017 4.03352 8.87237 4.79716L5.93425 6.26124C5.14483 6.65444 4.26149 6.86179 3.37942 6.86179H1.4046C1.05431 6.86179 0.77002 6.57858 0.77002 6.22963C0.77002 5.88068 1.05431 5.59747 1.4046 5.59747H3.37942C4.06477 5.59747 4.75266 5.43564 5.36567 5.13094L8.30378 3.66687C9.08686 3.27493 9.96639 3.06885 10.8459 3.06885C12.3118 3.06885 13.6724 3.59354 14.722 4.5443L16.0444 5.7454L17.2565 4.60878C18.9559 3.01575 21.6186 2.63013 23.6949 3.66687L26.6331 5.13094C27.2461 5.43564 27.934 5.59747 28.6193 5.59747H30.5941C30.9444 5.59747 31.2287 5.88068 31.2287 6.22963C31.2287 6.57858 30.9444 6.86179 30.5941 6.86179H28.6193C27.7385 6.86179 26.8539 6.65444 26.0645 6.26124L23.1264 4.79716C21.512 3.99053 19.4445 4.29144 18.1259 5.5292L12.157 11.1276C11.4615 11.8204 11.3307 12.9077 11.8638 13.6448C12.2027 14.1126 12.7002 14.3958 13.2662 14.4413C13.8196 14.4818 14.3704 14.2871 14.7664 13.8914L20.0524 8.85055C20.305 8.60907 20.7073 8.61792 20.9497 8.87078C21.1909 9.12238 21.1833 9.52316 20.9294 9.76465L18.2477 12.3224L28.0088 19.6149C28.3718 19.5428 28.7424 19.5049 29.1143 19.5049H30.5954C30.9457 19.5049 31.23 19.7881 31.23 20.1371Z" fill="white"/>
</g>
<defs>
<clipPath id="clip0_100_6692">
<rect width="30.46" height="30.46" fill="white" transform="translate(0.77002 0.77002)"/>
</clipPath>
</defs>
</svg>
