<svg width="134" height="62" viewBox="0 0 134 62" fill="none" xmlns="http://www.w3.org/2000/svg">
<path d="M50.1993 27.7767C50.1993 31.8401 49.6712 35.5071 48.6149 38.7696C47.5587 42.0361 46.0815 44.9374 44.1914 47.4776C42.2973 50.0177 40.0459 52.2006 37.4331 54.0301C34.8202 55.8596 31.9573 57.3594 28.8481 58.5372C25.735 59.715 22.4272 60.5827 18.917 61.148C15.4068 61.7134 11.8052 61.996 8.10442 61.996C6.72257 61.996 5.37248 61.9607 4.05416 61.8861C2.73187 61.8154 1.38179 61.7055 0.00390625 61.5602L1.23487 3.13295C4.46316 2.1161 7.78675 1.39764 11.2096 0.977551C14.6285 0.557465 18.0276 0.345459 21.4028 0.345459C25.5999 0.345459 29.4596 0.969699 32.9857 2.21818C36.5118 3.46666 39.5455 5.26479 42.1028 7.61648C44.66 9.96818 46.6454 12.842 48.0709 16.2381C49.4885 19.638 50.1993 23.4816 50.1993 27.7767ZM32.1479 30.5642C32.1757 28.9977 32.0089 27.4901 31.6396 26.0375C31.2743 24.5848 30.6707 23.301 29.8329 22.186C28.995 21.0671 27.9308 20.168 26.6403 19.4849C25.3498 18.8018 23.8091 18.4327 22.0183 18.3738L20.2552 45.3693C22.0182 45.1062 23.6145 44.5369 25.0559 43.6497C26.4934 42.7663 27.7363 41.6749 28.7766 40.3832C29.817 39.0915 30.627 37.6546 31.1988 36.0724C31.7706 34.4902 32.0883 32.857 32.1479 31.1727V30.5642Z" fill="#E30613"/>
<path d="M76.6213 1.04443L71.7769 60.3433L53.1934 61.3013V2.26543L76.6213 1.04443Z" fill="#E30613"/>
<path d="M134 58.604L112.156 61.3915L109.516 51.5528H99.4773L97.2774 61.3915L74.8184 59.2164L92.3417 1.221L116.826 0L134 58.604ZM107.931 38.2278L104.584 23.0773L101.324 38.2278H107.931Z" fill="#E30613"/>
</svg>
