<svg width="31" height="31" viewBox="0 0 31 31" fill="none" xmlns="http://www.w3.org/2000/svg">
<g filter="url(#filter0_b_100_5880)">
<rect width="31" height="31" rx="2.90838" fill="white"/>
<path d="M22.8137 17.8607L19.1626 16.2247L19.1526 16.22C18.963 16.1389 18.7563 16.1064 18.551 16.1253C18.3457 16.1443 18.1484 16.2141 17.9769 16.3285C17.9567 16.3418 17.9373 16.3563 17.9188 16.3719L16.0324 17.98C14.8374 17.3996 13.6036 16.1751 13.0231 14.9955L14.6335 13.0805C14.649 13.0611 14.6638 13.0417 14.6777 13.0208C14.7896 12.8498 14.8576 12.6537 14.8754 12.4501C14.8933 12.2464 14.8605 12.0416 14.78 11.8537V11.8444L13.1393 8.18713C13.033 7.94166 12.8501 7.73718 12.6179 7.6042C12.3858 7.47123 12.1168 7.4169 11.8513 7.44933C10.8011 7.58752 9.8372 8.10325 9.13951 8.9002C8.44182 9.69716 8.05809 10.7208 8.05999 11.78C8.05999 17.9335 13.0665 22.94 19.22 22.94C20.2792 22.9419 21.3029 22.5582 22.0998 21.8605C22.8968 21.1628 23.4125 20.1989 23.5507 19.1487C23.5832 18.8833 23.529 18.6144 23.3961 18.3823C23.2633 18.1501 23.059 17.9672 22.8137 17.8607ZM19.22 21.7C16.5899 21.6972 14.0684 20.6511 12.2087 18.7914C10.3489 16.9316 9.30286 14.4101 9.29999 11.78C9.29707 11.0232 9.56973 10.2913 10.067 9.72078C10.5643 9.15031 11.2523 8.78037 12.0024 8.68003C12.0021 8.68312 12.0021 8.68624 12.0024 8.68933L13.6299 12.3318L12.028 14.2492C12.0117 14.2679 11.997 14.2878 11.9838 14.3089C11.8672 14.4878 11.7988 14.6939 11.7852 14.907C11.7716 15.1202 11.8133 15.3333 11.9063 15.5256C12.6085 16.9617 14.0554 18.3978 15.507 19.0991C15.7007 19.1912 15.915 19.2315 16.1289 19.216C16.3429 19.2005 16.5492 19.1298 16.7276 19.0108C16.7475 18.9974 16.7666 18.9829 16.7849 18.9674L18.669 17.36L22.3115 18.9914H22.32C22.2209 19.7426 21.8515 20.4319 21.2809 20.9305C20.7103 21.429 19.9777 21.7026 19.22 21.7Z" fill="#E30613"/>
</g>
<defs>
<filter id="filter0_b_100_5880" x="-11.6335" y="-11.6335" width="54.267" height="54.267" filterUnits="userSpaceOnUse" color-interpolation-filters="sRGB">
<feFlood flood-opacity="0" result="BackgroundImageFix"/>
<feGaussianBlur in="BackgroundImageFix" stdDeviation="5.81676"/>
<feComposite in2="SourceAlpha" operator="in" result="effect1_backgroundBlur_100_5880"/>
<feBlend mode="normal" in="SourceGraphic" in2="effect1_backgroundBlur_100_5880" result="shape"/>
</filter>
</defs>
</svg>
