<svg width="34" height="34" viewBox="0 0 34 34" fill="none" xmlns="http://www.w3.org/2000/svg">
<g clip-path="url(#clip0_100_6688)">
<path d="M23.8105 0.95752C18.4643 0.95752 14.2758 3.30641 14.2758 6.30503V12.1579C13.0417 11.837 11.6619 11.6525 10.1895 11.6525C4.84325 11.6525 0.654785 14.0014 0.654785 17V27.6951C0.654785 30.6937 4.84325 33.0426 10.1895 33.0426C15.5357 33.0426 19.7242 30.6937 19.7242 27.6951V27.1804C20.995 27.5119 22.3871 27.6951 23.8105 27.6951C29.1568 27.6951 33.3452 25.3462 33.3452 22.3476V6.30503C33.3452 3.30641 29.1568 0.95752 23.8105 0.95752ZM23.8105 2.2944C28.2401 2.2944 31.9831 4.13127 31.9831 6.30503C31.9831 8.47879 28.2401 10.3157 23.8105 10.3157C19.381 10.3157 15.6379 8.47879 15.6379 6.30503C15.6379 4.13127 19.381 2.2944 23.8105 2.2944ZM10.1895 12.9894C14.619 12.9894 18.3621 14.8263 18.3621 17C18.3621 19.1738 14.619 21.0107 10.1895 21.0107C5.75994 21.0107 2.01689 19.1738 2.01689 17C2.01689 14.8263 5.75994 12.9894 10.1895 12.9894ZM2.01689 19.7808C3.66912 21.3289 6.67391 22.3476 10.1895 22.3476C13.7051 22.3476 16.7099 21.3289 18.3621 19.7808V22.3476C18.3621 24.5213 14.619 26.3582 10.1895 26.3582C5.75994 26.3582 2.01689 24.5213 2.01689 22.3476V19.7808ZM10.1895 31.7057C5.75994 31.7057 2.01689 29.8688 2.01689 27.6951V25.1283C3.66912 26.6764 6.67391 27.6951 10.1895 27.6951C13.7051 27.6951 16.7099 26.6764 18.3621 25.1283V27.6951C18.3621 29.8688 14.619 31.7057 10.1895 31.7057ZM23.8105 26.3582C22.3708 26.3582 20.9692 26.159 19.7242 25.794V21.8342C20.9937 22.1657 22.3844 22.3462 23.8105 22.3462C27.3261 22.3462 30.3309 21.3275 31.9831 19.7794V22.3462C31.9831 24.52 28.2401 26.3582 23.8105 26.3582ZM23.8105 21.0107C22.3653 21.0107 20.9692 20.8088 19.7242 20.4438V17C19.7242 16.8222 19.7079 16.6471 19.6779 16.4747C20.9555 16.8142 22.3517 17 23.8105 17C27.3261 17 30.3309 15.9813 31.9831 14.4332V17C31.9831 19.1738 28.2401 21.0107 23.8105 21.0107ZM23.8105 15.6632C22.0275 15.6632 20.3535 15.3691 18.926 14.829C18.2204 13.9159 17.079 13.1432 15.6379 12.5884V9.08707C17.2901 10.6352 20.2949 11.6539 23.8105 11.6539C27.3261 11.6539 30.3309 10.6352 31.9831 9.08707V11.6539C31.9831 13.8276 28.2401 15.6645 23.8105 15.6645V15.6632Z" fill="white"/>
</g>
<defs>
<clipPath id="clip0_100_6688">
<rect width="32.6904" height="32.0851" fill="white" transform="translate(0.654785 0.95752)"/>
</clipPath>
</defs>
</svg>
