<svg width="32" height="32" viewBox="0 0 32 32" fill="none" xmlns="http://www.w3.org/2000/svg">
<g clip-path="url(#clip0_100_6684)">
<path d="M15.4906 30.4929C13.5992 30.4929 11.8159 29.6764 10.5968 28.2536C10.48 28.1171 10.3277 28.0555 10.1347 28.0663C8.25684 28.2185 6.39987 27.5627 5.06275 26.2486C3.72562 24.9344 3.05092 23.1179 3.21314 21.2638C3.22912 21.0863 3.1603 20.9244 3.02265 20.8109C1.5737 19.6115 0.744141 17.8577 0.744141 16.0001C0.744141 14.1425 1.57493 12.3887 3.02265 11.1905C3.16153 11.0758 3.23035 10.9139 3.21437 10.7364C3.05215 8.88235 3.72685 7.06577 5.06397 5.75165C6.39987 4.43873 8.23963 3.7708 10.1359 3.93386C10.3141 3.95077 10.4813 3.88313 10.598 3.74665C11.8172 2.32261 13.6004 1.50732 15.4918 1.50732C17.3832 1.50732 19.1664 2.32382 20.3856 3.74665C20.5035 3.88313 20.6559 3.94714 20.8476 3.93386C22.7169 3.77684 24.5825 4.43753 25.9196 5.75165C27.2567 7.06577 27.9314 8.88235 27.7692 10.7364C27.7532 10.9139 27.8221 11.0758 27.9597 11.1893C29.4087 12.3887 30.2382 14.1425 30.2382 16.0001C30.2382 17.8577 29.4074 19.6115 27.9597 20.8097C27.8208 20.9244 27.752 21.0863 27.768 21.2638C27.9302 23.1179 27.2555 24.9344 25.9184 26.2486C24.5825 27.5615 22.7452 28.233 20.8464 28.0663C20.6694 28.0531 20.5011 28.1183 20.3843 28.2536C19.1652 29.6776 17.382 30.4929 15.4906 30.4929ZM10.1888 26.8549C10.7111 26.8549 11.1953 27.0759 11.5382 27.4757C12.5226 28.6256 13.9642 29.285 15.4918 29.285C17.0194 29.285 18.461 28.6256 19.4454 27.4757C19.8215 27.0361 20.3757 26.8114 20.9546 26.8621C22.4797 26.989 23.9717 26.4551 25.052 25.3934C26.1322 24.3317 26.6767 22.8642 26.5464 21.3653C26.4972 20.7928 26.7246 20.2541 27.1719 19.8845C28.3407 18.9158 29.0117 17.499 29.0117 15.9989C29.0117 14.4988 28.3407 13.0808 27.1707 12.1121C26.7246 11.7437 26.4972 11.2038 26.5464 10.6313C26.6767 9.13237 26.1322 7.66485 25.052 6.60317C23.9705 5.54148 22.4674 5.00641 20.9546 5.13444C20.3647 5.18759 19.8227 4.96052 19.4454 4.52087C18.461 3.37101 17.0194 2.71153 15.4918 2.71153C13.9642 2.71153 12.5226 3.37101 11.5382 4.52087C11.1609 4.96052 10.6017 5.18638 10.029 5.13444C8.50141 5.00521 7.01189 5.54148 5.93163 6.60317C4.85136 7.66485 4.30693 9.13237 4.4372 10.6313C4.48636 11.2038 4.259 11.7425 3.81165 12.1121C2.6429 13.0808 1.97188 14.4976 1.97188 15.9977C1.97188 17.4978 2.6429 18.9158 3.81288 19.8845C4.259 20.2529 4.48636 20.7928 4.4372 21.3653C4.30693 22.8642 4.85136 24.3317 5.93163 25.3934C7.01189 26.4551 8.51124 26.9865 10.029 26.8621C10.0831 26.8573 10.1359 26.8549 10.1888 26.8549ZM16.0485 18.7455L21.8726 13.2281C22.1172 12.9974 22.1245 12.6145 21.8898 12.3742C21.6539 12.1362 21.2655 12.1266 21.0209 12.3585L15.1882 17.8831C14.4693 18.5885 13.2993 18.5885 12.5656 17.8674L9.76602 15.3104C9.51777 15.0846 9.12818 15.0979 8.89713 15.3418C8.66609 15.5858 8.67961 15.9687 8.92786 16.1958L11.7127 18.7371C12.3124 19.3265 13.1014 19.6212 13.888 19.6212C14.6745 19.6212 15.4549 19.3289 16.0497 18.7443L16.0485 18.7455Z" fill="white"/>
</g>
<defs>
<clipPath id="clip0_100_6684">
<rect width="31.5281" height="31.0196" fill="white" transform="translate(0.23584 0.490234)"/>
</clipPath>
</defs>
</svg>
