<svg width="34" height="32" viewBox="0 0 34 32" fill="none" xmlns="http://www.w3.org/2000/svg">
<g clip-path="url(#clip0_100_6696)">
<path d="M19.0977 18.425L11.9004 12.8994C11.0511 12.2463 9.86635 12.2463 9.0144 12.8994L1.81977 18.425C1.01405 19.0431 0.551758 19.9722 0.551758 20.9765V31.8502H20.3644V20.9753C20.3644 19.9723 19.9021 19.0431 19.0977 18.425ZM19.0436 30.553H1.8726V20.9753C1.8726 20.3727 2.14998 19.8142 2.63341 19.4435L9.82804 13.918C10.1992 13.6342 10.717 13.6342 11.0855 13.918L18.2828 19.4435C18.7649 19.8142 19.0422 20.3727 19.0422 20.9753V30.553H19.0436ZM7.15598 26.6654H13.7602V20.1861H7.15598V26.6654ZM8.47682 21.4819H12.4394V25.3695H8.47682V21.4819ZM24.3269 17.5943H26.9686V18.8902H24.3269V17.5943ZM24.3269 22.7778H26.9686V24.0737H24.3269V22.7778ZM19.0436 7.22739H21.6853V8.52326H19.0436V7.22739ZM26.9686 8.52326H24.3269V7.22739H26.9686V8.52326ZM19.0436 12.4109H21.6853V13.7067H19.0436V12.4109ZM24.3269 12.4109H26.9686V13.7067H24.3269V12.4109ZM32.252 3.98772V31.8489H23.0061V30.553H30.9312V3.98772C30.9312 2.91603 30.0422 2.04392 28.9499 2.04392H17.0623C15.97 2.04392 15.081 2.91603 15.081 3.98772V12.4109L13.7602 11.3962V3.98772C13.7602 2.20072 15.2409 0.748047 17.0623 0.748047H28.9499C30.7713 0.748047 32.252 2.20072 32.252 3.98772Z" fill="white"/>
</g>
<defs>
<clipPath id="clip0_100_6696">
<rect width="32.8965" height="31.7002" fill="white" transform="translate(0.551758 0.149902)"/>
</clipPath>
</defs>
</svg>
