<svg width="34" height="32" viewBox="0 0 34 32" fill="none" xmlns="http://www.w3.org/2000/svg">
<g clip-path="url(#clip0_100_6700)">
<path d="M32.8112 21.3333C33.1906 21.3333 33.4986 21.0347 33.4986 20.6667V18.3333C33.4986 13.7093 29.8825 9.892 25.249 9.392V7.12133C25.249 3.19467 21.9546 0 17.9054 0C14.2508 0 11.1971 2.544 10.6471 6.04933L6.96223 29.532C6.85911 30.1893 6.28713 30.6667 5.60241 30.6667H1.18747C0.807987 30.6667 0.5 30.9653 0.5 31.3333C0.5 31.7013 0.807987 32 1.18747 32H5.60241C6.97048 32 8.11443 31.0467 8.32205 29.7347L12.0069 6.25067C12.4551 3.40133 14.9355 1.33333 17.9068 1.33333C21.1984 1.33333 23.8754 3.92933 23.8754 7.12133V9.33333H21.813C19.9169 9.33333 18.3756 10.828 18.3756 12.6667V28.6667C18.3756 30.5053 19.9169 32 21.813 32H29.2693C31.6466 31.7187 33.5 29.7133 33.5 27.3333C33.5 24.76 31.3413 22.6667 28.6877 22.6667C26.0341 22.6667 23.8754 24.76 23.8754 27.3333C23.8754 28.64 24.435 29.8187 25.3301 30.6667H21.813C20.6759 30.6667 19.7506 29.7693 19.7506 28.6667V12.6667C19.7506 11.564 20.6759 10.6667 21.813 10.6667H24.2191C28.5791 10.6667 32.1251 14.1053 32.1251 18.3333V20.6667C32.1251 21.0347 32.4317 21.3333 32.8112 21.3333ZM25.249 27.3333C25.249 25.4947 26.7903 24 28.6863 24C30.5824 24 32.1237 25.4947 32.1237 27.3333C32.1237 29.172 30.5824 30.6667 28.6863 30.6667C26.7903 30.6667 25.249 29.172 25.249 27.3333Z" fill="white"/>
</g>
<defs>
<clipPath id="clip0_100_6700">
<rect width="33" height="32" fill="white" transform="translate(0.5)"/>
</clipPath>
</defs>
</svg>
